HIERARCHY
ROOT Hips
{
  OFFSET 31.6921 94.5317 -6.04131
  CHANNELS 6 Xposition Yposition Zposition Zrotation Xrotation Yrotation
  JOINT RightUpLeg
  {
    OFFSET -8.9458 -8.66707 0.101652
    CHANNELS 3 Zrotation Xrotation Yrotation
    JOINT RightLeg
    {
      OFFSET 0 -44.4227 1.3727
      CHANNELS 3 Zrotation Xrotation Yrotation
      JOINT RightFoot
      {
        OFFSET 0.253549 -42.0924 -1.46059
        CHANNELS 3 Zrotation Xrotation Yrotation
        JOINT RightToes
        {
          OFFSET 0.04 -4.41509 8.4991
          CHANNELS 3 Zrotation Xrotation Yrotation
          End Site
          {
            OFFSET -0.08 -0.137448 9.77979
          }
        }
      }
    }
  }
  JOINT Spine
  {
    OFFSET 0 11.8905 0
    CHANNELS 3 Zrotation Xrotation Yrotation
    JOINT Spine1
    {
      OFFSET 0 25.6574 0.127663
      CHANNELS 3 Zrotation Xrotation Yrotation
      JOINT HEad
      {
        OFFSET 0 8.73416 0.011341
        CHANNELS 3 Zrotation Xrotation Yrotation
        End Site
        {
          OFFSET -0.29 12.7742 2.51395
        }
      }
      JOINT LeftShoulder1
      {
        OFFSET 8.99 -0.362252 -0.22
        CHANNELS 3 Zrotation Xrotation Yrotation
        JOINT LeftArm
        {
          OFFSET 10.2827 -0.00338 0.322123
          CHANNELS 3 Zrotation Xrotation Yrotation
          JOINT LeftForeArm
          {
            OFFSET 32.7669 0.099144 -1.42434
            CHANNELS 3 Zrotation Xrotation Yrotation
            JOINT LeftHand
            {
              OFFSET 27.5643 0.085362 1.02216
              CHANNELS 3 Zrotation Xrotation Yrotation
              End Site
              {
                OFFSET 16.7443 -0.6 1.50291
              }
            }
          }
        }
      }
      JOINT RightShoulder
      {
        OFFSET -8.99 -0.362252 -0.22
        CHANNELS 3 Zrotation Xrotation Yrotation
        JOINT RightArm
        {
          OFFSET -10.2827 -0.00338 0.322123
          CHANNELS 3 Zrotation Xrotation Yrotation
          JOINT RightForeArm
          {
            OFFSET -32.8971 0.099144 -1.42434
            CHANNELS 3 Zrotation Xrotation Yrotation
            JOINT RightHand
            {
              OFFSET -27.4921 0.085362 1.02216
              CHANNELS 3 Zrotation Xrotation Yrotation
              End Site
              {
                OFFSET -16.6312 -0.6 1.50291
              }
            }
          }
        }
      }
    }
  }
  JOINT LeftUpLeg
  {
    OFFSET 8.9458 -8.66707 0.101652
    CHANNELS 3 Zrotation Xrotation Yrotation
    JOINT LeftLeg
    {
      OFFSET 0 -44.4227 1.3727
      CHANNELS 3 Zrotation Xrotation Yrotation
      JOINT LeftFoot
      {
        OFFSET -0.253549 -42.0924 -1.46059
        CHANNELS 3 Zrotation Xrotation Yrotation
        JOINT LeftToes
        {
          OFFSET -0.04 -4.41509 8.4991
          CHANNELS 3 Zrotation Xrotation Yrotation
          End Site
          {
            OFFSET 0.08 -0.047448 9.77979
          }
        }
      }
    }
  }
}
MOTION
Frames:	8
Frame Time:	0.0166667
29.2098 92.958 -0.631599 9.51853 33.1921 -167.052 -16.9988 -52.0897 -58.2851 -110.811 57.5157 113.614 4.09021 3.84989 0.517571 0.0462048 0.000533403 0.662642 8.45406 43.2204 -8.71836 0.00982783 0.01082 -0.00563024 12.9968 9.11279 -17.2621 -7.95139e-016 1.59028e-015 -0 -102.065 -23.645 -74.1403 -61.1165 51.7306 -56.2433 17.1793 18.0098 -13.2313 30.4822 24.4697 -13.2126 120.253 -16.2287 111.758 27.3948 53.4743 82.0949 15.4051 19.1886 0.158816 21.7066 -1.57403 -17.153 -43.6712 19.8024 83.7994 2.94899 -3.46428 -0.998173 -1.18446e-009 1.5602e-007 -4.87131e-009 
28.9868 92.7116 0.837832 9.72538 29.22 -169.061 -6.04743 -49.5655 -52.9511 -88.3888 53.2679 89.286 4.20923 2.89461 0.922647 0.0462048 0.000533403 0.662642 7.33719 43.0818 -8.30526 -0.00522033 -0.01963 0.00518013 11.9354 7.11586 -14.9574 1.78906e-015 0 -1.59028e-015 -104.59 -26.5569 -77.575 -63.2059 52.4044 -53.8519 19.4808 23.1607 -12.5894 25.6264 22.1865 -9.56615 121.175 -16.1963 108.694 27.4483 53.9777 81.8639 17.6821 14.6899 0.930879 20.3946 -5.03242 -14.2534 -42.0277 18.7938 83.2655 3.71928 -2.89943 -0.721251 -1.18446e-009 1.5602e-007 -4.87132e-009 
28.7506 92.5768 2.19387 9.38173 24.854 -171.161 3.69386 -45.8886 -47.4269 -72.4564 45.6887 70.5035 4.44758 1.9897 1.13834 0.0462048 0.000533403 0.662642 5.36173 42.3076 -7.30014 -0.00689027 -0.02275 0.00555017 10.6493 5.62459 -12.4768 -1.19271e-015 0 3.97569e-016 -108.156 -30.5968 -81.9315 -65.2898 53.2304 -51.4313 22.6129 30.0078 -11.5806 19.6675 16.7011 -4.41973 121.501 -18.5077 102.815 27.7688 54.4334 80.885 21.1011 8.84817 2.84629 18.9843 -8.75116 -11.439 -40.4111 17.7599 82.4996 4.10381 -2.29435 -0.49271 -1.18447e-009 1.5602e-007 -4.87131e-009 
28.5041 92.7151 3.33696 8.52204 20.2251 -173.397 11.5903 -41.4007 -42.2707 -62.0517 36.854 56.3233 4.52507 1.02306 1.15006 0.0462048 0.000533403 0.662642 2.72967 40.8257 -5.90151 -0.00689041 -0.02127 0.00555017 9.08166 4.71981 -9.86546 1.2921e-015 -6.36111e-015 -7.95139e-016 -113.118 -35.406 -87.3879 -67.4095 54.2978 -48.9714 25.9131 37.1436 -10.697 15.2884 11.6147 -0.903264 120.165 -19.102 96.4762 28.4702 54.6509 79.0338 25.2041 3.28551 6.01494 17.5324 -12.5745 -8.76136 -38.8523 16.6889 81.5168 4.06108 -1.68863 -0.309434 -1.18447e-009 1.5602e-007 -4.87131e-009 
28.2934 93.2081 4.06267 6.25515 15.0854 -176.2 16.5406 -36.4685 -36.1901 -55.072 31.051 42.4505 2.8881 -0.0112837 0.905065 0.0462048 0.000533403 0.662642 -1.86053 37.6432 -3.27851 -0.00688852 -0.0408 0.00555018 6.48388 5.57258 -6.63365 1.57785e-015 -3.18055e-015 -1.54058e-015 -122.067 -42.1744 -96.0512 -69.3375 56.7124 -46.3513 27.7419 43.1963 -10.3038 13.834 9.01471 1.00824 114.629 -15.7259 90.009 30.4602 53.8326 74.7035 17.8506 16.7143 5.42333 15.736 -16.2094 -6.28729 -37.3337 16.0841 79.7023 2.2516 -1.32334 -0.228743 -1.18446e-009 1.5602e-007 -4.87132e-009 
28.1277 94.0057 4.38818 4.21836 10.9305 -178.739 18.7125 -30.6916 -31.4307 -48.0696 27.5912 27.6398 -0.594539 -1.12801 0.561358 0.0462048 0.000533403 0.662642 -5.39102 34.1527 -1.4122 -0.00688919 -0.03384 0.00555018 2.80746 7.71243 -2.70985 9.93923e-017 -3.18055e-015 7.95139e-016 -135.848 -48.5069 -108.904 -71.7447 60.3386 -42.9386 21.0597 25.0249 -11.4287 12.7412 7.35957 2.15629 108.306 -9.88657 83.684 33.3846 51.4058 69.365 17.3848 20.8737 5.95335 14.6299 -18.7765 -5.54965 -35.9445 15.4692 77.2702 -0.812373 -1.15666 -0.231607 -1.18447e-009 1.5602e-007 -4.87131e-009 
28.0204 94.9956 4.35076 2.50718 7.70945 179.036 18.4909 -25.1977 -27.6423 -39.9417 24.8294 12.5547 -4.62886 -2.02739 0.179077 0.0462048 0.000533403 0.662642 -7.99394 30.6036 -0.0983215 -0.00689019 -0.02349 0.00555017 -1.94428 10.6918 2.06103 1.78906e-015 -3.18055e-015 1.98785e-015 -154.42 -52.1743 -126.191 -75.268 65.0832 -38.2395 19.3799 22.1177 -11.0272 12.0316 6.57814 3.05293 104.379 -5.83144 80.021 34.0923 48.8047 67.8196 12.7445 29.617 6.23186 14.0595 -19.9131 -6.31887 -34.2343 14.8763 73.8286 -5.92548 -1.21125 -0.316682 -1.18447e-009 1.5602e-007 -4.87132e-009 
27.9742 96.0833 4.02656 1.15292 5.32199 177.135 16.5236 -19.9916 -24.2625 -30.0413 21.975 -0.0957664 -7.34658 -2.54614 -0.102541 0.0462048 0.000533403 0.662642 -9.86412 27.1459 0.860016 -0.00689114 -0.0137 0.00555017 -6.51687 13.6643 6.66162 1.98785e-016 3.18055e-015 3.97569e-016 -174.756 -51.5021 -145.233 -92.3345 67.5147 -22.931 15.7939 10.9907 -12.737 11.8086 6.55525 3.63085 101.761 -3.03713 77.6762 33.4887 46.9151 68.1432 14.5796 29.5375 5.56601 13.7297 -19.9195 -8.29887 -32.2931 13.3528 70.0864 -11.4702 -1.16004 -0.417483 -1.18447e-009 1.5602e-007 -4.87131e-009 
